<mxfile host="app.diagrams.net" modified="2021-12-20T20:18:06.468Z" agent="5.0 (Windows NT 10.0; Win64; x64) AppleWebKit/537.36 (KHTML, like Gecko) Chrome/96.0.4664.110 Safari/537.36" etag="jSWfqbcYk3-OVQFtXVLb" version="16.0.0" type="github">
  <diagram id="C5RBs43oDa-KdzZeNtuy" name="Page-1">
    <mxGraphModel dx="1422" dy="794" grid="1" gridSize="10" guides="1" tooltips="1" connect="1" arrows="1" fold="1" page="1" pageScale="1" pageWidth="1200" pageHeight="1920" math="0" shadow="0">
      <root>
        <mxCell id="WIyWlLk6GJQsqaUBKTNV-0" />
        <mxCell id="WIyWlLk6GJQsqaUBKTNV-1" parent="WIyWlLk6GJQsqaUBKTNV-0" />
        <mxCell id="_WWlfX8RiMhc3DPhIGd6-19" value="" style="edgeStyle=orthogonalEdgeStyle;rounded=0;orthogonalLoop=1;jettySize=auto;html=1;" edge="1" parent="WIyWlLk6GJQsqaUBKTNV-1" source="_WWlfX8RiMhc3DPhIGd6-0" target="_WWlfX8RiMhc3DPhIGd6-2">
          <mxGeometry relative="1" as="geometry" />
        </mxCell>
        <mxCell id="_WWlfX8RiMhc3DPhIGd6-0" value="início" style="ellipse;whiteSpace=wrap;html=1;" vertex="1" parent="WIyWlLk6GJQsqaUBKTNV-1">
          <mxGeometry x="280" y="30" width="120" height="80" as="geometry" />
        </mxCell>
        <mxCell id="_WWlfX8RiMhc3DPhIGd6-20" value="" style="edgeStyle=orthogonalEdgeStyle;rounded=0;orthogonalLoop=1;jettySize=auto;html=1;" edge="1" parent="WIyWlLk6GJQsqaUBKTNV-1" source="_WWlfX8RiMhc3DPhIGd6-2" target="_WWlfX8RiMhc3DPhIGd6-6">
          <mxGeometry relative="1" as="geometry" />
        </mxCell>
        <mxCell id="_WWlfX8RiMhc3DPhIGd6-2" value="&amp;nbsp;Escrever &quot;Insira o nome do evento" style="shape=display;whiteSpace=wrap;html=1;" vertex="1" parent="WIyWlLk6GJQsqaUBKTNV-1">
          <mxGeometry x="510" y="130" width="110" height="60" as="geometry" />
        </mxCell>
        <mxCell id="_WWlfX8RiMhc3DPhIGd6-22" value="" style="edgeStyle=orthogonalEdgeStyle;rounded=0;orthogonalLoop=1;jettySize=auto;html=1;" edge="1" parent="WIyWlLk6GJQsqaUBKTNV-1" source="_WWlfX8RiMhc3DPhIGd6-6" target="_WWlfX8RiMhc3DPhIGd6-8">
          <mxGeometry relative="1" as="geometry" />
        </mxCell>
        <mxCell id="_WWlfX8RiMhc3DPhIGd6-6" value="ler nome do evento cadastrado" style="html=1;strokeWidth=2;shape=manualInput;whiteSpace=wrap;rounded=1;size=26;arcSize=11;" vertex="1" parent="WIyWlLk6GJQsqaUBKTNV-1">
          <mxGeometry x="640" y="220" width="140" height="70" as="geometry" />
        </mxCell>
        <mxCell id="_WWlfX8RiMhc3DPhIGd6-23" value="" style="edgeStyle=orthogonalEdgeStyle;rounded=0;orthogonalLoop=1;jettySize=auto;html=1;" edge="1" parent="WIyWlLk6GJQsqaUBKTNV-1" source="_WWlfX8RiMhc3DPhIGd6-8" target="_WWlfX8RiMhc3DPhIGd6-17">
          <mxGeometry relative="1" as="geometry" />
        </mxCell>
        <mxCell id="_WWlfX8RiMhc3DPhIGd6-8" value="Insira a data do evento" style="shape=display;whiteSpace=wrap;html=1;" vertex="1" parent="WIyWlLk6GJQsqaUBKTNV-1">
          <mxGeometry x="490" y="230" width="110" height="60" as="geometry" />
        </mxCell>
        <mxCell id="_WWlfX8RiMhc3DPhIGd6-26" value="não" style="edgeStyle=orthogonalEdgeStyle;rounded=0;orthogonalLoop=1;jettySize=auto;html=1;" edge="1" parent="WIyWlLk6GJQsqaUBKTNV-1" source="_WWlfX8RiMhc3DPhIGd6-11" target="_WWlfX8RiMhc3DPhIGd6-24">
          <mxGeometry relative="1" as="geometry" />
        </mxCell>
        <mxCell id="_WWlfX8RiMhc3DPhIGd6-29" value="" style="edgeStyle=orthogonalEdgeStyle;rounded=0;orthogonalLoop=1;jettySize=auto;html=1;" edge="1" parent="WIyWlLk6GJQsqaUBKTNV-1" source="_WWlfX8RiMhc3DPhIGd6-11">
          <mxGeometry relative="1" as="geometry">
            <mxPoint x="355" y="485" as="targetPoint" />
          </mxGeometry>
        </mxCell>
        <mxCell id="_WWlfX8RiMhc3DPhIGd6-30" value="sim" style="edgeLabel;html=1;align=center;verticalAlign=middle;resizable=0;points=[];" vertex="1" connectable="0" parent="_WWlfX8RiMhc3DPhIGd6-29">
          <mxGeometry x="-0.1652" y="1" relative="1" as="geometry">
            <mxPoint as="offset" />
          </mxGeometry>
        </mxCell>
        <mxCell id="_WWlfX8RiMhc3DPhIGd6-11" value="A data do evento é posterior à data atual?" style="html=1;whiteSpace=wrap;aspect=fixed;shape=isoRectangle;" vertex="1" parent="WIyWlLk6GJQsqaUBKTNV-1">
          <mxGeometry x="470" y="440" width="150" height="90" as="geometry" />
        </mxCell>
        <mxCell id="_WWlfX8RiMhc3DPhIGd6-18" value="" style="edgeStyle=orthogonalEdgeStyle;rounded=0;orthogonalLoop=1;jettySize=auto;html=1;" edge="1" parent="WIyWlLk6GJQsqaUBKTNV-1" source="_WWlfX8RiMhc3DPhIGd6-17" target="_WWlfX8RiMhc3DPhIGd6-11">
          <mxGeometry relative="1" as="geometry" />
        </mxCell>
        <mxCell id="_WWlfX8RiMhc3DPhIGd6-17" value="ler data do evento" style="html=1;strokeWidth=2;shape=manualInput;whiteSpace=wrap;rounded=1;size=26;arcSize=11;" vertex="1" parent="WIyWlLk6GJQsqaUBKTNV-1">
          <mxGeometry x="590" y="340" width="100" height="60" as="geometry" />
        </mxCell>
        <mxCell id="_WWlfX8RiMhc3DPhIGd6-48" style="edgeStyle=orthogonalEdgeStyle;rounded=0;orthogonalLoop=1;jettySize=auto;html=1;entryX=0.5;entryY=0;entryDx=0;entryDy=0;" edge="1" parent="WIyWlLk6GJQsqaUBKTNV-1" source="_WWlfX8RiMhc3DPhIGd6-24" target="_WWlfX8RiMhc3DPhIGd6-47">
          <mxGeometry relative="1" as="geometry" />
        </mxCell>
        <mxCell id="_WWlfX8RiMhc3DPhIGd6-24" value="Escrever &quot;evento não permitido&quot;" style="shape=display;whiteSpace=wrap;html=1;" vertex="1" parent="WIyWlLk6GJQsqaUBKTNV-1">
          <mxGeometry x="730" y="455" width="110" height="60" as="geometry" />
        </mxCell>
        <mxCell id="_WWlfX8RiMhc3DPhIGd6-32" value="" style="edgeStyle=orthogonalEdgeStyle;rounded=0;orthogonalLoop=1;jettySize=auto;html=1;" edge="1" parent="WIyWlLk6GJQsqaUBKTNV-1" source="_WWlfX8RiMhc3DPhIGd6-25" target="_WWlfX8RiMhc3DPhIGd6-31">
          <mxGeometry relative="1" as="geometry" />
        </mxCell>
        <mxCell id="_WWlfX8RiMhc3DPhIGd6-25" value="Escrever &quot;evento permitido&quot;" style="shape=display;whiteSpace=wrap;html=1;" vertex="1" parent="WIyWlLk6GJQsqaUBKTNV-1">
          <mxGeometry x="240" y="455" width="110" height="60" as="geometry" />
        </mxCell>
        <mxCell id="_WWlfX8RiMhc3DPhIGd6-34" value="" style="edgeStyle=orthogonalEdgeStyle;rounded=0;orthogonalLoop=1;jettySize=auto;html=1;" edge="1" parent="WIyWlLk6GJQsqaUBKTNV-1" source="_WWlfX8RiMhc3DPhIGd6-31" target="_WWlfX8RiMhc3DPhIGd6-33">
          <mxGeometry relative="1" as="geometry" />
        </mxCell>
        <mxCell id="_WWlfX8RiMhc3DPhIGd6-31" value="Informe o nome do participante, idade e se é palestrante&lt;br&gt;" style="shape=display;whiteSpace=wrap;html=1;" vertex="1" parent="WIyWlLk6GJQsqaUBKTNV-1">
          <mxGeometry x="240" y="560" width="110" height="60" as="geometry" />
        </mxCell>
        <mxCell id="_WWlfX8RiMhc3DPhIGd6-37" value="" style="edgeStyle=orthogonalEdgeStyle;rounded=0;orthogonalLoop=1;jettySize=auto;html=1;" edge="1" parent="WIyWlLk6GJQsqaUBKTNV-1" source="_WWlfX8RiMhc3DPhIGd6-33" target="_WWlfX8RiMhc3DPhIGd6-36">
          <mxGeometry relative="1" as="geometry" />
        </mxCell>
        <mxCell id="_WWlfX8RiMhc3DPhIGd6-33" value="ler nome do participante, idade e se é palestrante" style="html=1;strokeWidth=2;shape=manualInput;whiteSpace=wrap;rounded=1;size=26;arcSize=11;" vertex="1" parent="WIyWlLk6GJQsqaUBKTNV-1">
          <mxGeometry x="240" y="640" width="120" height="80" as="geometry" />
        </mxCell>
        <mxCell id="_WWlfX8RiMhc3DPhIGd6-51" value="não&lt;br&gt;" style="edgeStyle=orthogonalEdgeStyle;rounded=0;orthogonalLoop=1;jettySize=auto;html=1;entryX=0;entryY=0.5;entryDx=0;entryDy=0;entryPerimeter=0;" edge="1" parent="WIyWlLk6GJQsqaUBKTNV-1" source="_WWlfX8RiMhc3DPhIGd6-36" target="_WWlfX8RiMhc3DPhIGd6-40">
          <mxGeometry relative="1" as="geometry">
            <Array as="points">
              <mxPoint x="470" y="780" />
            </Array>
          </mxGeometry>
        </mxCell>
        <mxCell id="_WWlfX8RiMhc3DPhIGd6-56" style="edgeStyle=orthogonalEdgeStyle;rounded=0;orthogonalLoop=1;jettySize=auto;html=1;entryX=0.467;entryY=0.111;entryDx=0;entryDy=0;entryPerimeter=0;" edge="1" parent="WIyWlLk6GJQsqaUBKTNV-1" source="_WWlfX8RiMhc3DPhIGd6-36" target="_WWlfX8RiMhc3DPhIGd6-52">
          <mxGeometry relative="1" as="geometry" />
        </mxCell>
        <mxCell id="_WWlfX8RiMhc3DPhIGd6-36" value="idade do participante é maior que 18?" style="html=1;whiteSpace=wrap;aspect=fixed;shape=isoRectangle;" vertex="1" parent="WIyWlLk6GJQsqaUBKTNV-1">
          <mxGeometry x="265" y="740" width="150" height="90" as="geometry" />
        </mxCell>
        <mxCell id="_WWlfX8RiMhc3DPhIGd6-59" style="edgeStyle=orthogonalEdgeStyle;rounded=0;orthogonalLoop=1;jettySize=auto;html=1;entryX=0.523;entryY=0.986;entryDx=0;entryDy=0;entryPerimeter=0;" edge="1" parent="WIyWlLk6GJQsqaUBKTNV-1" source="_WWlfX8RiMhc3DPhIGd6-38" target="_WWlfX8RiMhc3DPhIGd6-44">
          <mxGeometry relative="1" as="geometry" />
        </mxCell>
        <mxCell id="_WWlfX8RiMhc3DPhIGd6-38" value="escrever &quot;participante cadastrado&quot;" style="shape=display;whiteSpace=wrap;html=1;" vertex="1" parent="WIyWlLk6GJQsqaUBKTNV-1">
          <mxGeometry x="606.67" y="905" width="110" height="60" as="geometry" />
        </mxCell>
        <mxCell id="_WWlfX8RiMhc3DPhIGd6-43" value="" style="edgeStyle=orthogonalEdgeStyle;rounded=0;orthogonalLoop=1;jettySize=auto;html=1;entryX=0.437;entryY=0.914;entryDx=0;entryDy=0;entryPerimeter=0;" edge="1" parent="WIyWlLk6GJQsqaUBKTNV-1" source="_WWlfX8RiMhc3DPhIGd6-40" target="_WWlfX8RiMhc3DPhIGd6-44">
          <mxGeometry relative="1" as="geometry">
            <mxPoint x="485" y="860" as="targetPoint" />
          </mxGeometry>
        </mxCell>
        <mxCell id="_WWlfX8RiMhc3DPhIGd6-40" value="Escrever &quot;participante deve ser maior de 18 anos&quot;" style="shape=display;whiteSpace=wrap;html=1;" vertex="1" parent="WIyWlLk6GJQsqaUBKTNV-1">
          <mxGeometry x="490" y="790" width="110" height="60" as="geometry" />
        </mxCell>
        <mxCell id="_WWlfX8RiMhc3DPhIGd6-45" style="edgeStyle=orthogonalEdgeStyle;rounded=0;orthogonalLoop=1;jettySize=auto;html=1;" edge="1" parent="WIyWlLk6GJQsqaUBKTNV-1" source="_WWlfX8RiMhc3DPhIGd6-44" target="_WWlfX8RiMhc3DPhIGd6-33">
          <mxGeometry relative="1" as="geometry" />
        </mxCell>
        <mxCell id="_WWlfX8RiMhc3DPhIGd6-46" value="sim&lt;br&gt;" style="edgeLabel;html=1;align=center;verticalAlign=middle;resizable=0;points=[];" vertex="1" connectable="0" parent="_WWlfX8RiMhc3DPhIGd6-45">
          <mxGeometry x="-0.6986" y="-1" relative="1" as="geometry">
            <mxPoint as="offset" />
          </mxGeometry>
        </mxCell>
        <mxCell id="_WWlfX8RiMhc3DPhIGd6-62" style="edgeStyle=orthogonalEdgeStyle;rounded=0;orthogonalLoop=1;jettySize=auto;html=1;entryX=0;entryY=0.5;entryDx=0;entryDy=0;entryPerimeter=0;" edge="1" parent="WIyWlLk6GJQsqaUBKTNV-1" source="_WWlfX8RiMhc3DPhIGd6-44" target="_WWlfX8RiMhc3DPhIGd6-61">
          <mxGeometry relative="1" as="geometry" />
        </mxCell>
        <mxCell id="_WWlfX8RiMhc3DPhIGd6-63" value="não" style="edgeLabel;html=1;align=center;verticalAlign=middle;resizable=0;points=[];" vertex="1" connectable="0" parent="_WWlfX8RiMhc3DPhIGd6-62">
          <mxGeometry x="-0.1773" y="2" relative="1" as="geometry">
            <mxPoint as="offset" />
          </mxGeometry>
        </mxCell>
        <mxCell id="_WWlfX8RiMhc3DPhIGd6-44" value="deseja cadastrar denovo?" style="html=1;whiteSpace=wrap;aspect=fixed;shape=isoRectangle;" vertex="1" parent="WIyWlLk6GJQsqaUBKTNV-1">
          <mxGeometry x="600" y="685" width="116.67" height="70" as="geometry" />
        </mxCell>
        <mxCell id="_WWlfX8RiMhc3DPhIGd6-47" value="fim" style="ellipse;whiteSpace=wrap;html=1;" vertex="1" parent="WIyWlLk6GJQsqaUBKTNV-1">
          <mxGeometry x="910" y="640" width="120" height="80" as="geometry" />
        </mxCell>
        <mxCell id="_WWlfX8RiMhc3DPhIGd6-53" style="edgeStyle=orthogonalEdgeStyle;rounded=0;orthogonalLoop=1;jettySize=auto;html=1;entryX=0;entryY=0.5;entryDx=0;entryDy=0;entryPerimeter=0;" edge="1" parent="WIyWlLk6GJQsqaUBKTNV-1" source="_WWlfX8RiMhc3DPhIGd6-52" target="_WWlfX8RiMhc3DPhIGd6-38">
          <mxGeometry relative="1" as="geometry" />
        </mxCell>
        <mxCell id="_WWlfX8RiMhc3DPhIGd6-54" value="sim&lt;br&gt;" style="edgeLabel;html=1;align=center;verticalAlign=middle;resizable=0;points=[];" vertex="1" connectable="0" parent="_WWlfX8RiMhc3DPhIGd6-53">
          <mxGeometry x="0.3053" y="2" relative="1" as="geometry">
            <mxPoint as="offset" />
          </mxGeometry>
        </mxCell>
        <mxCell id="_WWlfX8RiMhc3DPhIGd6-57" value="não" style="edgeStyle=orthogonalEdgeStyle;rounded=0;orthogonalLoop=1;jettySize=auto;html=1;entryX=0;entryY=0;entryDx=53.75;entryDy=0;entryPerimeter=0;" edge="1" parent="WIyWlLk6GJQsqaUBKTNV-1" source="_WWlfX8RiMhc3DPhIGd6-52" target="_WWlfX8RiMhc3DPhIGd6-55">
          <mxGeometry relative="1" as="geometry" />
        </mxCell>
        <mxCell id="_WWlfX8RiMhc3DPhIGd6-52" value="quantidade de participantes inferior a 100?&lt;br&gt;" style="html=1;whiteSpace=wrap;aspect=fixed;shape=isoRectangle;" vertex="1" parent="WIyWlLk6GJQsqaUBKTNV-1">
          <mxGeometry x="230" y="890" width="150" height="90" as="geometry" />
        </mxCell>
        <mxCell id="_WWlfX8RiMhc3DPhIGd6-55" value="escrever &quot;já tem participantes demais cadastrados&quot;&lt;br&gt;" style="shape=display;whiteSpace=wrap;html=1;" vertex="1" parent="WIyWlLk6GJQsqaUBKTNV-1">
          <mxGeometry x="230" y="1040" width="110" height="60" as="geometry" />
        </mxCell>
        <mxCell id="_WWlfX8RiMhc3DPhIGd6-60" value="sim&lt;br&gt;" style="text;html=1;align=center;verticalAlign=middle;resizable=0;points=[];autosize=1;strokeColor=none;fillColor=none;" vertex="1" parent="WIyWlLk6GJQsqaUBKTNV-1">
          <mxGeometry x="290" y="840" width="40" height="20" as="geometry" />
        </mxCell>
        <mxCell id="_WWlfX8RiMhc3DPhIGd6-64" style="edgeStyle=orthogonalEdgeStyle;rounded=0;orthogonalLoop=1;jettySize=auto;html=1;entryX=0.5;entryY=1;entryDx=0;entryDy=0;" edge="1" parent="WIyWlLk6GJQsqaUBKTNV-1" source="_WWlfX8RiMhc3DPhIGd6-61" target="_WWlfX8RiMhc3DPhIGd6-47">
          <mxGeometry relative="1" as="geometry" />
        </mxCell>
        <mxCell id="_WWlfX8RiMhc3DPhIGd6-61" value="mostrar lista de participantes e palestrantes&lt;br&gt;" style="shape=display;whiteSpace=wrap;html=1;" vertex="1" parent="WIyWlLk6GJQsqaUBKTNV-1">
          <mxGeometry x="770" y="760" width="110" height="60" as="geometry" />
        </mxCell>
      </root>
    </mxGraphModel>
  </diagram>
</mxfile>
